<svg width="1358" height="767" fill="none" xmlns="http://www.w3.org/2000/svg"><path stroke="#727272" stroke-dasharray="6 6" d="M1339.88 766.345V.1M1293.16 766.345V.1M1246.44 766.345V.1M1199.72 766.345V.1M1153 766.345V.1M1106.27 766.345V.1M1059.55 766.345V.1M1012.83 766.345V.1M966.109 766.345V.1M919.385 766.345V.1M872.664 766.345V.1M825.944 766.345V.1M779.219 766.345V.1M732.492 766.345V.1M685.748 766.356V.111M639.027 766.356V.111M592.303 766.356V.111M545.582 766.356V.111M498.861 766.356V.111M452.137 766.356V.111M405.416 766.356V.111M358.689 766.356 358.69.112M311.971 766.356V.112M265.254 766.356V.111M218.523 766.356 218.524.112M171.799 766.356V.111M125.078 766.356V.111M78.357 766.356 78.358.112M31.642 766.356V.111M.366 733.151l1466.144.001M.366 686.429H1466.51M.366 639.706H1466.51M.366 592.983l1466.144.001M.366 546.261H1466.51M.366 499.54H1466.51M.366 452.815l1466.144.001M.366 406.093H1466.51M.366 359.372H1466.51M.366 312.649l1466.144.001M.366 265.927H1466.51M.366 219.206H1466.51M.366 172.483l1466.144.001M.366 125.761H1466.51M.366 79.038H1466.51M.365 32.317l1466.145.001"/></svg>