<svg width="80" height="16" fill="none" xmlns="http://www.w3.org/2000/svg"><path d="M74.582 11.443c-2.324 0-5.18-3.015-5.302-3.142-1.304-1.517-2.624-2.866-4.565-2.866-2.127 0-4.626 2.826-4.652 2.854l-.217.235c-1.378 1.5-2.68 2.919-4.997 2.919-2.323 0-5.18-3.015-5.301-3.142-1.305-1.517-2.624-2.866-4.565-2.866-2.127 0-4.627 2.825-4.653 2.854l-.203.214c-1.574 1.643-2.816 2.94-5.01 2.94-2.323 0-5.18-3.015-5.3-3.142-1.306-1.517-2.626-2.866-4.565-2.866-2.128 0-4.627 2.825-4.653 2.853l-.219.238c-1.376 1.5-2.678 2.916-4.995 2.916-2.325 0-5.182-3.015-5.302-3.142-1.305-1.517-2.625-2.866-4.564-2.866a5.185 5.185 0 0 0-4.595 2.77.44.44 0 1 1-.776-.41 6.063 6.063 0 0 1 5.37-3.238c2.31 0 3.843 1.56 5.216 3.157.737.783 3.036 2.85 4.65 2.85 1.932 0 2.998-1.16 4.349-2.63l.212-.231c.105-.12 2.783-3.145 5.305-3.145 2.31 0 3.843 1.56 5.216 3.156.737.783 3.036 2.85 4.65 2.85 1.819 0 2.836-1.06 4.376-2.667l.192-.201c.1-.115 2.778-3.139 5.299-3.139 2.311 0 3.845 1.56 5.216 3.156.737.782 3.036 2.85 4.65 2.85 1.933 0 3-1.161 4.352-2.634l.21-.228c.105-.12 2.784-3.145 5.304-3.145 2.311 0 3.845 1.56 5.217 3.156.736.782 3.035 2.85 4.65 2.85a5.215 5.215 0 0 0 4.504-2.605.44.44 0 0 1 .761.438 6.093 6.093 0 0 1-5.266 3.049Z" fill="hsl(0, 0%, 31.2%)"/></svg>