<svg width="64" height="64" fill="none" xmlns="http://www.w3.org/2000/svg"><g clip-path="url(#a)" fill="#F0F1F4"><path d="M15.007 8.24c-3.311 1.007-5.925 3.669-6.914 7.04a.438.438 0 0 1-.85 0C6.252 11.91 3.638 9.248.327 8.24c-.437-.132-.437-.741 0-.866C3.639 6.367 6.253 3.706 7.242.334a.438.438 0 0 1 .851 0c.989 3.372 3.603 6.033 6.914 7.04.437.133.437.741 0 .866ZM64 39.625c0 1.261-.989 2.275-2.218 2.275h-9.847C51.39 53.977 40.745 64 28.198 64 15.652 64 4.436 53.431 4.436 40.925v-1.196L.29 32.358c-.608-1.092-.24-2.483.812-3.107a2.202 2.202 0 0 1 3.041.832l4.094 7.267h24.079V24.675C32.317 17.681 37.855 12 44.673 12c6.819 0 12.357 5.681 12.357 12.675v4.55c0 1.261-.989 2.275-2.218 2.275-1.23 0-2.218-1.014-2.218-2.275v-4.55c0-4.485-3.549-8.125-7.92-8.125-4.373 0-7.922 3.64-7.922 8.125V37.35h2.218c1.23 0 2.218 1.014 2.218 2.275v.975c0 6.877-5.944 12.675-12.99 12.675-4.245 0-8.415-2.236-10.874-5.85a2.328 2.328 0 0 1 .558-3.172c1.001-.715 2.383-.455 3.08.572 1.647 2.405 4.41 3.9 7.236 3.9 4.093 0 7.73-3.068 8.44-6.825H8.897c.57 9.451 9.353 17.55 19.301 17.55 9.949 0 19.327-8.658 19.327-18.525v-1.3c0-1.261.988-2.275 2.218-2.275h12.04c1.228 0 2.217 1.014 2.217 2.275Z"/></g><defs><clipPath id="a"><path fill="#fff" d="M0 0h64v64H0z"/></clipPath></defs></svg>