<svg width="265" height="64" fill="none" xmlns="http://www.w3.org/2000/svg"><g clip-path="url(#a)" fill="#F0F1F4"><path d="M15.007 8.24c-3.311 1.007-5.925 3.669-6.914 7.04a.438.438 0 0 1-.85 0C6.252 11.91 3.638 9.248.327 8.24c-.437-.132-.437-.741 0-.866C3.639 6.367 6.253 3.706 7.242.334a.438.438 0 0 1 .851 0c.989 3.372 3.603 6.033 6.914 7.04.437.133.437.741 0 .866ZM64 39.625c0 1.261-.989 2.275-2.218 2.275h-9.847C51.39 53.977 40.745 64 28.198 64 15.652 64 4.436 53.431 4.436 40.925v-1.196L.29 32.358c-.608-1.092-.24-2.483.812-3.107a2.202 2.202 0 0 1 3.041.832l4.094 7.267h24.079V24.675C32.317 17.681 37.855 12 44.673 12c6.819 0 12.357 5.681 12.357 12.675v4.55c0 1.261-.989 2.275-2.218 2.275-1.23 0-2.218-1.014-2.218-2.275v-4.55c0-4.485-3.549-8.125-7.92-8.125-4.373 0-7.922 3.64-7.922 8.125V37.35h2.218c1.23 0 2.218 1.014 2.218 2.275v.975c0 6.877-5.944 12.675-12.99 12.675-4.245 0-8.415-2.236-10.874-5.85a2.328 2.328 0 0 1 .558-3.172c1.001-.715 2.383-.455 3.08.572 1.647 2.405 4.41 3.9 7.236 3.9 4.093 0 7.73-3.068 8.44-6.825H8.897c.57 9.451 9.353 17.55 19.301 17.55 9.949 0 19.327-8.658 19.327-18.525v-1.3c0-1.261.988-2.275 2.218-2.275h12.04c1.228 0 2.217 1.014 2.217 2.275Z"/></g><path d="M259.108 57.456a.599.599 0 0 1-.488-.25l-5.916-8.235-2.561 2.409v5.477a.6.6 0 0 1-.601.6h-2.729a.6.6 0 0 1-.601-.6V32.599a.6.6 0 0 1 .601-.599h2.729a.6.6 0 0 1 .601.6v13.602l7.366-6.71a.602.602 0 0 1 .406-.157h3.516c.545 0 .809.663.412 1.035l-6.254 5.868 7.299 10.273a.599.599 0 0 1-.49.945h-3.29ZM234.567 57.744c-5.302 0-9.161-3.955-9.161-9.384 0-5.394 3.823-9.313 9.161-9.313 4.489 0 7.504 2.366 8.286 6.013.076.354-.206.675-.569.675h-2.786c-.288 0-.53-.205-.618-.478-.56-1.738-2.193-2.83-4.313-2.83-2.922 0-5.158 2.445-5.158 5.933 0 3.523 2.236 6.004 5.158 6.004 2.251 0 3.926-1.151 4.464-2.926.084-.279.329-.49.621-.49h2.77c.366 0 .648.324.564.68-.82 3.451-4.015 6.116-8.419 6.116ZM211.687 57.744c-3.896 0-6.745-2.481-6.745-6.832V39.934a.6.6 0 0 1 .601-.6h2.765a.6.6 0 0 1 .601.6v10.26c0 2.588 1.479 4.098 3.788 4.098 3.173 0 5.085-2.732 5.085-7.155v-7.203a.6.6 0 0 1 .601-.6h2.765a.6.6 0 0 1 .602.6v16.923a.6.6 0 0 1-.602.6h-2.765a.6.6 0 0 1-.601-.6v-2.205c-1.01 1.761-3.21 3.092-6.095 3.092ZM191.239 57.744c-5.374 0-8.981-3.668-8.981-9.349 0-5.68 3.607-9.348 8.981-9.348 2.489 0 4.833 1.115 5.843 2.805v-9.253a.6.6 0 0 1 .601-.599h2.765a.6.6 0 0 1 .601.6v24.257a.6.6 0 0 1-.601.6h-2.765a.6.6 0 0 1-.601-.6v-1.954c-1.01 1.726-3.39 2.84-5.843 2.84Zm-4.941-9.349c0 3.524 2.236 5.969 5.374 5.969 3.174 0 5.41-2.48 5.41-5.968 0-3.56-2.236-5.969-5.41-5.969-3.138 0-5.374 2.409-5.374 5.968ZM171.486 57.744c-5.555 0-9.27-3.883-9.27-9.348 0-5.466 3.823-9.349 9.053-9.349 5.59 0 9.082 4.183 8.64 9.543a.58.58 0 0 1-.585.525h-13.14c.252 3.38 2.308 5.321 5.229 5.321 2.109 0 3.555-.93 4.147-2.405.101-.252.334-.435.605-.435h2.79c.374 0 .659.338.559.697-.902 3.252-3.882 5.45-8.028 5.45ZM166.4 46.13h9.378c-.036-2.409-1.876-3.919-4.509-3.919-2.561 0-4.292 1.33-4.869 3.92ZM151.618 57.744c-5.302 0-9.162-3.955-9.162-9.384 0-5.394 3.824-9.313 9.162-9.313 4.489 0 7.503 2.366 8.286 6.013.076.354-.206.675-.57.675h-2.786c-.287 0-.529-.205-.617-.478-.56-1.738-2.193-2.83-4.313-2.83-2.922 0-5.158 2.445-5.158 5.933 0 3.523 2.236 6.004 5.158 6.004 2.251 0 3.925-1.151 4.464-2.926.084-.279.329-.49.621-.49h2.77c.365 0 .648.324.564.68-.82 3.451-4.015 6.116-8.419 6.116ZM129.931 57.744c-3.859 0-6.348-2.121-6.348-5.25 0-3.595 2.489-5.465 8.116-6.076l3.678-.36v-.467c0-2.121-1.514-3.38-3.823-3.38-1.982 0-3.359.965-3.798 2.758-.071.29-.321.514-.622.514h-2.75c-.366 0-.649-.323-.566-.678.756-3.24 3.552-5.758 7.736-5.758 4.545 0 7.791 2.553 7.791 7.012v10.798a.6.6 0 0 1-.601.6h-2.765a.6.6 0 0 1-.602-.6v-2.026c-.757 1.582-2.993 2.913-5.446 2.913Zm-2.416-5.43c0 1.439 1.19 2.302 3.065 2.302 2.886 0 4.797-2.265 4.797-5.142v-.503l-3.498.431c-3.066.36-4.364 1.115-4.364 2.913ZM102.823 64a.6.6 0 0 1-.602-.6V39.935c0-.33.27-.6.602-.6h2.765a.6.6 0 0 1 .601.6v1.918c1.046-1.69 3.354-2.805 5.843-2.805 5.41 0 8.981 3.668 8.981 9.349 0 5.68-3.571 9.348-8.981 9.348-2.453 0-4.797-1.115-5.843-2.84V63.4a.6.6 0 0 1-.601.599h-2.765Zm3.366-15.604c0 3.487 2.236 5.968 5.41 5.968 3.138 0 5.41-2.445 5.41-5.968 0-3.56-2.272-5.969-5.41-5.969-3.174 0-5.41 2.409-5.41 5.969ZM89.853 57.744c-5.268 0-9.138-2.823-9.848-8.053a.578.578 0 0 1 .583-.648h2.953c.308 0 .563.233.617.535.539 3.053 2.794 4.534 5.695 4.534 2.778 0 4.725-1.366 4.725-3.487 0-5.933-13.85-2.661-13.85-11.722 0-4.17 3.643-6.903 8.476-6.903 5.044 0 8.39 2.538 9.2 6.808a.572.572 0 0 1-.574.67h-2.972a.65.65 0 0 1-.613-.48c-.622-2.118-2.487-3.366-5.041-3.366-2.597 0-4.256 1.186-4.256 3.092 0 5.105 13.886 1.905 13.886 11.649 0 4.459-3.75 7.37-8.98 7.37Z" fill="#F0F1F4"/><defs><clipPath id="a"><path fill="#fff" d="M0 0h64v64H0z"/></clipPath></defs></svg>