<svg xmlns="http://www.w3.org/2000/svg" xmlns:xlink="http://www.w3.org/1999/xlink" viewBox="0 0 92 92"><path d="M 46 4.182 L 46 14.636" fill="transparent" stroke-width="2" stroke="#fff" stroke-linecap="round" stroke-linejoin="round"></path><path d="M 46 77.364 L 46 87.818" fill="transparent" stroke-width="2" stroke="#fff" stroke-linecap="round" stroke-linejoin="round"></path><path d="M 4.182 46 L 14.636 46" fill="transparent" stroke-width="2" stroke="#fff" stroke-linecap="round" stroke-linejoin="round"></path><path d="M 77.364 46 L 87.818 46" fill="transparent" stroke-width="2" stroke="#fff" stroke-linecap="round" stroke-linejoin="round"></path><path d="M 25.091 9.785 L 30.318 18.838" fill="transparent" stroke-width="2" stroke="#fff" stroke-linecap="round" stroke-linejoin="round"></path><path d="M 61.682 73.162 L 66.909 82.216" fill="transparent" stroke-width="2" stroke="#fff" stroke-linecap="round" stroke-linejoin="round"></path><path d="M 9.785 66.909 L 18.838 61.682" fill="transparent" stroke-width="2" stroke="#fff" stroke-linecap="round" stroke-linejoin="round"></path><path d="M 73.162 30.318 L 82.216 25.091" fill="transparent" stroke-width="2" stroke="#fff" stroke-linecap="round" stroke-linejoin="round"></path><path d="M 9.785 25.091 L 18.838 30.318" fill="transparent" stroke-width="2" stroke="#fff" stroke-linecap="round" stroke-linejoin="round"></path><path d="M 73.162 61.682 L 82.216 66.909" fill="transparent" stroke-width="2" stroke="#fff" stroke-linecap="round" stroke-linejoin="round"></path><path d="M 25.091 82.215 L 30.318 73.162" fill="transparent" stroke-width="2" stroke="#fff" stroke-linecap="round" stroke-linejoin="round"></path><path d="M 61.682 18.838 L 66.909 9.784" fill="transparent" stroke-width="2" stroke="#fff" stroke-linecap="round" stroke-linejoin="round"></path><path d="M 10.656 36.529 L 15.705 37.882" fill="transparent" stroke-width="2" stroke="#fff" stroke-linecap="round" stroke-linejoin="round"></path><path d="M 76.295 54.117 L 81.344 55.47" fill="transparent" stroke-width="2" stroke="#fff" stroke-linecap="round" stroke-linejoin="round"></path><path d="M 36.529 81.344 L 37.882 76.295" fill="transparent" stroke-width="2" stroke="#fff" stroke-linecap="round" stroke-linejoin="round"></path><path d="M 54.117 15.705 L 55.47 10.656" fill="transparent" stroke-width="2" stroke="#fff" stroke-linecap="round" stroke-linejoin="round"></path><path d="M 10.656 55.471 L 15.705 54.118" fill="transparent" stroke-width="2" stroke="#fff" stroke-linecap="round" stroke-linejoin="round"></path><path d="M 76.295 37.883 L 81.344 36.53" fill="transparent" stroke-width="2" stroke="#fff" stroke-linecap="round" stroke-linejoin="round"></path><path d="M 55.471 81.344 L 54.118 76.295" fill="transparent" stroke-width="2" stroke="#fff" stroke-linecap="round" stroke-linejoin="round"></path><path d="M 37.883 15.705 L 36.53 10.656" fill="transparent" stroke-width="2" stroke="#fff" stroke-linecap="round" stroke-linejoin="round"></path><path d="M 20.126 71.874 L 23.823 68.177" fill="transparent" stroke-width="2" stroke="#fff" stroke-linecap="round" stroke-linejoin="round"></path><path d="M 68.177 23.823 L 71.874 20.126" fill="transparent" stroke-width="2" stroke="#fff" stroke-linecap="round" stroke-linejoin="round"></path><path d="M 71.874 71.874 L 68.177 68.177" fill="transparent" stroke-width="2" stroke="#fff" stroke-linecap="round" stroke-linejoin="round"></path><path d="M 23.823 23.823 L 20.126 20.126" fill="transparent" stroke-width="2" stroke="#fff" stroke-linecap="round" stroke-linejoin="round"></path></svg>