<svg width="24" height="24" viewBox="0 0 24 24" fill="none" xmlns="http://www.w3.org/2000/svg">
<path fill-rule="evenodd" clip-rule="evenodd" d="M8.96645 2.25L9 2.25L11 2.25L11.0336 2.25C12.4053 2.25 13.4807 2.24999 14.3451 2.32061C15.2252 2.39252 15.9523 2.54138 16.6104 2.87671C17.6924 3.42798 18.572 4.30762 19.1233 5.38955C19.2349 5.60867 19.3259 5.83544 19.4003 6.07295C19.376 6.08867 19.3525 6.10408 19.3298 6.11909C18.8654 6.4261 18.3284 6.85584 17.7646 7.30698L17.6951 7.36256L17.4951 7.52257C17.4737 7.53971 17.4504 7.55818 17.4254 7.57794L17.4254 7.57796C17.1787 7.77314 16.772 8.09488 16.4638 8.52012C16.2001 8.88384 16.004 9.29197 15.8847 9.72507C15.7452 10.2314 15.748 10.7502 15.7497 11.0649L15.7499 11.1081L15.75 11.1541L15.75 11.1581L15.75 11.1621L15.75 11.166L15.75 11.17L15.75 11.174L15.75 11.178L15.75 11.1819L15.75 11.1859L15.75 11.1899L15.75 11.1938L15.75 11.1978L15.75 11.2018L15.75 11.2057L15.75 11.2097L15.75 11.2136L15.75 11.2176L15.75 11.2215L15.75 11.2255L15.75 11.2294L15.75 11.2333L15.75 11.2373L15.75 11.2412L15.75 11.2451L15.75 11.2491L15.75 11.253L15.75 11.2569L15.75 11.2608L15.75 11.2647L15.75 11.2687L15.75 11.2726L15.75 11.2765L15.75 11.2804L15.75 11.2843L15.75 11.2882L15.75 11.2921L15.75 11.296L15.75 11.2999L15.75 11.3038L15.75 11.3077L15.75 11.3115L15.75 11.3154L15.75 11.3193L15.75 11.3232L15.75 11.3271L15.75 11.3309L15.75 11.3348L15.75 11.3387L15.75 11.3425L15.75 11.3464L15.75 11.3503L15.75 11.3541L15.75 11.358L15.75 11.3618L15.75 11.3657L15.75 11.3695L15.75 11.3734L15.75 11.3772L15.75 11.381L15.75 11.3849L15.75 11.3887L15.75 11.3925L15.75 11.3964L15.75 11.4002L15.75 11.404L15.75 11.4078L15.75 11.4117L15.75 11.4155L15.75 11.4193L15.75 11.4231L15.75 11.4269L15.75 11.4307L15.75 11.4345L15.75 11.4383L15.75 11.4421L15.75 11.4459L15.75 11.4497L15.75 11.4535L15.75 11.4573L15.75 11.4611L15.75 11.4648L15.75 11.4686L15.75 11.4724L15.75 11.4762L15.75 11.4799L15.75 11.4837L15.75 11.4875L15.75 11.4912L15.75 11.495L15.75 11.4987L15.75 11.5025L15.75 11.5063L15.75 11.51L15.75 11.5137L15.75 11.5175L15.75 11.5212L15.75 11.525L15.75 11.5287L15.75 11.5324L15.75 11.5362L15.75 11.5399L15.75 11.5436L15.75 11.5474L15.75 11.5511L15.75 11.5548L15.75 11.5585L15.75 11.5622L15.75 11.5659L15.75 11.5696L15.75 11.5733L15.75 11.577L15.75 11.5807L15.75 11.5844L15.75 11.5881L15.75 11.5918L15.75 11.5955L15.75 11.5992L15.75 11.6029L15.75 11.6066L15.75 11.6102L15.75 11.6139L15.75 11.6176L15.75 11.6213L15.75 11.6249L15.75 11.6286L15.75 11.6323L15.75 11.6359L15.75 11.6396L15.75 11.6432L15.75 11.6469L15.75 11.6505L15.75 11.6542L15.75 11.6578L15.75 11.6615L15.75 11.6651L15.75 11.6687L15.75 11.6724L15.75 11.676L15.75 11.6796L15.75 11.6833L15.75 11.6869L15.75 11.6905L15.75 11.6941L15.75 11.6977L15.75 11.7014L15.75 11.705L15.75 11.7086L15.75 11.7122L15.75 11.7158L15.75 11.7194L15.75 11.723L15.75 11.7266L15.75 11.7302L15.75 11.7337L15.75 11.7373L15.75 11.7409L15.75 11.7445L15.75 11.7481L15.75 11.7516L15.75 11.7552L15.75 11.7588L15.75 11.7624L15.75 11.7659L15.75 11.7695L15.75 11.773L15.75 11.7766L15.75 11.7802L15.75 11.7837L15.75 11.7873L15.75 11.7908L15.75 11.7943L15.75 11.7979L15.75 11.8014L15.75 11.805L15.75 11.8085L15.75 11.812L15.75 11.8155L15.75 11.8191L15.75 11.8226L15.75 11.8261L15.75 11.8296L15.75 11.8331L15.75 11.8367L15.75 11.8402L15.75 11.8437L15.75 11.8472L15.75 11.8507L15.75 11.8542L15.75 11.8577L15.75 11.8612L15.75 11.8646L15.75 11.8681L15.75 11.8716L15.75 11.8751L15.75 11.8786L15.75 11.8821L15.75 11.8855L15.75 11.889L15.75 11.8925L15.75 11.8959L15.75 11.8994L15.75 11.9029L15.75 11.9063L15.75 11.9098L15.75 11.9132L15.75 11.9167L15.75 11.9201L15.75 11.9236L15.75 11.927L15.75 11.9305L15.75 11.9339L15.75 11.9373L15.75 11.9408L15.75 11.9442L15.75 11.9476L15.75 11.951L15.75 11.9544L15.75 11.9579L15.75 11.9613L15.75 11.9647L15.75 11.9681L15.75 11.9715L15.75 11.9749L15.75 11.9783L15.75 11.9817L15.75 11.9851L15.75 11.9885L15.75 11.9919L15.75 11.9953L15.75 11.9987L15.75 12.0021L15.75 12.0054L15.75 12.0088L15.75 12.0122L15.75 12.0156L15.75 12.0189L15.75 12.0223L15.75 12.0257L15.75 12.029L15.75 12.0324L15.75 12.0357L15.75 12.0391L15.75 12.0424L15.75 12.0458L15.75 12.0491L15.75 12.0525L15.75 12.0558L15.75 12.0591L15.75 12.0625L15.75 12.0658L15.75 12.0691L15.75 12.0725L15.75 12.0758L15.75 12.0791L15.75 12.0824L15.75 12.0857L15.75 12.0891L15.75 12.0924L15.75 12.0957L15.75 12.099L15.75 12.1023L15.75 12.1056L15.75 12.1089L15.75 12.1122L15.75 12.1155L15.75 12.1188L15.75 12.122L15.75 12.1253L15.75 12.1286L15.75 12.1319L15.75 12.1352L15.75 12.1384L15.75 12.1417L15.75 12.145L15.75 12.1482L15.75 12.1515L15.75 12.1547L15.75 12.158L15.75 12.1613L15.75 12.1645L15.75 12.1678L15.75 12.171L15.75 12.1742L15.75 12.1775L15.75 12.1807L15.75 12.184L15.75 12.1872L15.75 12.1904L15.75 12.1936L15.75 12.1969L15.75 12.2001L15.75 12.2033L15.75 12.2065L15.75 12.2097L15.75 12.2129L15.75 12.2161L15.75 12.2194L15.75 12.2226L15.75 12.2258L15.75 12.2289L15.75 12.2321L15.75 12.2353L15.75 12.2385L15.75 12.2417L15.75 12.2449L15.75 12.2481L15.75 12.2512L15.75 12.2544L15.75 12.2576L15.75 12.2608L15.75 12.2639L15.75 12.2671L15.75 12.2703L15.75 12.2734L15.75 12.2766L15.75 12.2797L15.75 12.2829L15.75 12.286L15.75 12.2892L15.75 12.2923L15.75 12.2954L15.75 12.2986L15.75 12.3017L15.75 12.3048L15.75 12.308L15.75 12.3111L15.75 12.3142L15.75 12.3173L15.75 12.3205L15.75 12.3236L15.75 12.3267L15.75 12.3298L15.75 12.3329L15.75 12.336L15.75 12.3391L15.75 12.3422L15.75 12.3453L15.75 12.3484L15.75 12.3515L15.75 12.3546L15.75 12.3576L15.75 12.3607L15.75 12.3638L15.75 12.3669L15.75 12.37L15.75 12.373L15.75 12.3761L15.75 12.3792L15.75 12.3822L15.75 12.3853L15.75 12.3883L15.75 12.3914L15.75 12.3944L15.75 12.3975L15.75 12.4005L15.75 12.4036L15.75 12.4066L15.75 12.4097L15.75 12.4127L15.75 12.4157L15.75 12.4188L15.75 12.4218L15.75 12.4248L15.75 12.4278L15.75 12.4309L15.75 12.4339L15.75 12.4369L15.75 12.4399L15.75 12.4429L15.75 12.4459L15.75 12.4489L15.75 12.4519L15.75 12.4549L15.75 12.4579L15.75 12.4609L15.75 12.4639L15.75 12.4669L15.75 12.4698L15.75 12.4728L15.75 12.4758L15.75 12.4788L15.75 12.4817L15.75 12.4847L15.75 12.4877L15.75 12.4906L15.75 12.4936L15.75 12.4966L15.75 12.4995L15.75 12.5025L15.75 12.5054L15.75 12.5084L15.75 12.5113L15.75 12.5143L15.75 12.5172L15.75 12.5201L15.75 12.5231L15.75 12.526L15.75 12.5289L15.75 12.5318L15.75 12.5348L15.75 12.5377L15.75 12.5406L15.75 12.5435L15.75 12.5464L15.75 12.5493L15.75 12.5522L15.75 12.5551L15.75 12.558L15.75 12.5609L15.75 12.5638L15.75 12.5667L15.75 12.5696L15.75 12.5725L15.75 12.5754L15.75 12.5783L15.75 12.5811L15.75 12.584L15.75 12.5869L15.75 12.5898L15.75 12.5926L15.75 12.5955L15.75 12.5984L15.75 12.6012L15.75 12.6041L15.75 12.6069L15.75 12.6098L15.75 12.6126L15.75 12.6155L15.75 12.6183L15.75 12.6211L15.75 12.624L15.75 12.6268L15.75 12.6296L15.75 12.6325L15.75 12.6353L15.75 12.6381L15.75 12.6409L15.75 12.6438L15.75 12.6466L15.75 12.6494L15.75 12.6522L15.75 12.655L15.75 12.6578L15.75 12.6606L15.75 12.6634L15.75 12.6662L15.75 12.669L15.75 12.6718L15.75 12.6746L15.75 12.6773L15.75 12.6801L15.75 12.6829L15.75 12.6857L15.75 12.6884L15.75 12.6912L15.75 12.694L15.75 12.6967L15.75 12.6995L15.75 12.7023L15.75 12.705L15.75 12.7078L15.75 12.7105L15.75 12.7133L15.75 12.716L15.75 12.7188L15.75 12.7215L15.75 12.7242L15.75 12.727L15.75 12.7297L15.75 12.7324L15.75 12.7351L15.75 12.7379L15.75 12.7406L15.75 12.7433L15.75 12.746L15.75 12.7487L15.75 12.7514L15.75 12.7541L15.75 12.7568L15.75 12.7595L15.75 12.7622L15.75 12.7649L15.75 12.7676L15.75 12.7703L15.75 12.773L15.75 12.7757L15.75 12.7784L15.75 12.781L15.75 12.7837L15.75 12.7864L15.75 12.7891L15.75 12.7917L15.75 12.7944L15.75 12.797L15.75 12.7997L15.75 12.8024L15.75 12.805L15.75 12.8077L15.75 12.8103L15.75 12.8129L15.75 12.8156L15.75 12.8182L15.75 12.8209L15.75 12.8235L15.75 12.8261L15.75 12.8287L15.75 12.8314L15.75 12.834L15.75 12.8366L15.75 12.8392L15.75 12.8418L15.75 12.8444L15.75 12.8471C15.75 12.8745 15.7498 12.9042 15.7497 12.9361C15.748 13.2505 15.7452 13.7688 15.8847 14.2751C16.004 14.7082 16.2002 15.1164 16.4638 15.4801C16.7721 15.9053 17.1787 16.2271 17.4254 16.4222L17.4254 16.4223L17.4456 16.4382L17.4952 16.4776L17.6952 16.6376L17.7646 16.6932C18.3284 17.1443 18.8654 17.5741 19.3298 17.8811C19.3525 17.8961 19.376 17.9115 19.4002 17.9272C19.3259 18.1646 19.2349 18.3914 19.1233 18.6104C18.572 19.6924 17.6924 20.572 16.6104 21.1233C15.9523 21.4586 15.2252 21.6075 14.3451 21.6794C13.4808 21.75 12.4054 21.75 11.0338 21.75L11.0337 21.75L11.0337 21.75L11.0336 21.75L11.0336 21.75L11 21.75L9 21.75L8.96642 21.75L8.96638 21.75L8.96633 21.75L8.96628 21.75L8.96623 21.75C7.59461 21.75 6.51924 21.75 5.65494 21.6794C4.7748 21.6075 4.04769 21.4586 3.38956 21.1233C2.30763 20.572 1.42799 19.6924 0.876717 18.6104C0.541383 17.9523 0.392526 17.2252 0.320616 16.3451C0.249997 15.4807 0.249999 14.4053 0.250002 13.0336L0.250002 13.0336L0.250002 13L0.250003 11L0.250003 10.9664L0.250003 10.9664C0.249999 9.59469 0.249997 8.51927 0.320616 7.65494C0.392526 6.77479 0.541383 6.04768 0.876717 5.38955C1.42799 4.30762 2.30763 3.42798 3.38956 2.87671C4.04769 2.54138 4.7748 2.39252 5.65494 2.32061C6.51929 2.24999 7.59473 2.25 8.96645 2.25ZM23.2585 7.71731C22.831 7.18178 22.1828 6.87024 21.4976 6.87098C21.0028 6.87152 20.5584 7.10498 20.157 7.37034C19.7508 7.63895 19.2608 8.03096 18.6618 8.51016L18.6618 8.51018L18.6322 8.53386L18.4322 8.69386L18.3755 8.73912C18.1007 8.95852 17.8585 9.15184 17.6783 9.40048C17.5201 9.61871 17.4024 9.86359 17.3308 10.1234C17.2492 10.4195 17.2496 10.7294 17.25 11.0811L17.25 11.1536L17.25 12.8466L17.25 12.9191C17.2496 13.2708 17.2492 13.5807 17.3308 13.8767C17.4024 14.1366 17.5201 14.3815 17.6783 14.5997C17.8585 14.8483 18.1007 15.0417 18.3756 15.2611L18.4322 15.3063L18.6322 15.4663L18.6618 15.49C19.2608 15.9692 19.7508 16.3612 20.1571 16.6298C20.5584 16.8952 21.0029 17.1286 21.4976 17.1292C22.1828 17.1299 22.831 16.8183 23.2585 16.2828C23.5671 15.8962 23.6624 15.4033 23.706 14.9241C23.75 14.4391 23.75 13.8116 23.75 13.0445L23.75 13.0066L23.75 10.9936L23.75 10.9557C23.75 10.1886 23.75 9.56107 23.706 9.07602C23.6624 8.59684 23.5671 8.10395 23.2585 7.71731Z" fill="currentColor"/>
</svg>
