<svg width="20" height="20" viewBox="0 0 20 20" fill="none" xmlns="http://www.w3.org/2000/svg">
<path fill-rule="evenodd" clip-rule="evenodd" d="M10 18C12.1217 18 14.1566 17.1571 15.6569 15.6569C17.1571 14.1566 18 12.1217 18 10C18 7.87827 17.1571 5.84344 15.6569 4.34315C14.1566 2.84285 12.1217 2 10 2C7.87827 2 5.84344 2.84285 4.34315 4.34315C2.84285 5.84344 2 7.87827 2 10C2 12.1217 2.84285 14.1566 4.34315 15.6569C5.84344 17.1571 7.87827 18 10 18V18ZM10.75 5C10.75 4.80109 10.671 4.61032 10.5303 4.46967C10.3897 4.32902 10.1989 4.25 10 4.25C9.80109 4.25 9.61032 4.32902 9.46967 4.46967C9.32902 4.61032 9.25 4.80109 9.25 5V10C9.25 10.414 9.586 10.75 10 10.75H14C14.1989 10.75 14.3897 10.671 14.5303 10.5303C14.671 10.3897 14.75 10.1989 14.75 10C14.75 9.80109 14.671 9.61032 14.5303 9.46967C14.3897 9.32902 14.1989 9.25 14 9.25H10.75V5Z" fill="currentColor"/>
</svg>
