<svg width="24" height="24" viewBox="0 0 24 24" fill="none" xmlns="http://www.w3.org/2000/svg">
<path fill-rule="evenodd" clip-rule="evenodd" d="M2.43597 4.18404C2 5.03969 2 6.15979 2 8.4V9.6C2 11.8402 2 12.9603 2.43597 13.816C2.81947 14.5686 3.43139 15.1805 4.18404 15.564C5.03969 16 6.15979 16 8.4 16H9.6C11.8402 16 12.9603 16 13.816 15.564C14.5686 15.1805 15.1805 14.5686 15.564 13.816C16 12.9603 16 11.8402 16 9.6V8.4C16 6.15979 16 5.03969 15.564 4.18404C15.1805 3.43139 14.5686 2.81947 13.816 2.43597C12.9603 2 11.8402 2 9.6 2H8.4C6.15979 2 5.03969 2 4.18404 2.43597C3.43139 2.81947 2.81947 3.43139 2.43597 4.18404ZM22 12.4446V15.6C22 17.8402 22 18.9603 21.564 19.816C21.1805 20.5686 20.5686 21.1805 19.816 21.564C18.9603 22 17.8402 22 15.6 22H12.3051C12.0218 22 11.8802 22 11.7605 21.9928C9.73993 21.8716 8.12836 20.2601 8.00717 18.2395C8 18.1198 8 17.9782 8 17.6949C8 17.6601 8 17.6427 8.00088 17.6279C8.01565 17.3786 8.21216 17.1784 8.46118 17.159C8.47594 17.1579 8.49335 17.1575 8.52817 17.1569L9.148 17.1454H9.14801C11.9013 17.0944 13.278 17.0689 14.3274 16.517C15.2507 16.0313 15.999 15.2691 16.4675 14.3369C16.9999 13.2775 16.9999 11.9006 16.9999 9.14678V8.55557C16.9999 8.50397 16.9999 8.47816 17.0018 8.45641C17.0229 8.2147 17.2146 8.02306 17.4563 8.0019C17.478 8 17.5038 8 17.5554 8C17.9683 8 18.1747 8 18.3487 8.01523C20.2824 8.18445 21.8156 9.71757 21.9848 11.6513C22 11.8253 22 12.0317 22 12.4446Z" fill="#22272F"/>
</svg>
