<svg xmlns="http://www.w3.org/2000/svg" width="16" height="16" fill="none"><path fill="#A0A0A0" fill-rule="evenodd" d="M6 .833h-.047c-.575 0-.914 0-1.207.039A4.5 4.5 0 0 0 .872 4.746c-.039.293-.039.632-.039 1.207v.094c0 .575 0 .914.039 1.207a4.5 4.5 0 0 0 3.976 3.886 4.39 4.39 0 0 0 4.374 4.027h.825c.575 0 .914 0 1.207-.039a4.5 4.5 0 0 0 3.874-3.874c.039-.293.039-.633.039-1.207v-.825a4.39 4.39 0 0 0-4.027-4.374A4.5 4.5 0 0 0 7.254.872C6.961.833 6.622.833 6.047.833H6Zm5.167 5.022v.192c0 .575 0 .914-.039 1.207a4.5 4.5 0 0 1-3.874 3.874c-.293.039-.632.039-1.207.039h-.192a3.39 3.39 0 0 0 3.367 3H10c.635 0 .904-.002 1.124-.03a3.5 3.5 0 0 0 3.013-3.014c.029-.219.03-.488.03-1.123v-.778a3.39 3.39 0 0 0-3-3.367Zm-6.29-3.992c.219-.029.488-.03 1.123-.03s.904.001 1.124.03a3.5 3.5 0 0 1 3.013 3.013c.029.22.03.489.03 1.124 0 .635-.001.904-.03 1.123a3.5 3.5 0 0 1-3.013 3.014c-.22.028-.489.03-1.124.03-.635 0-.904-.002-1.123-.03a3.5 3.5 0 0 1-3.014-3.014c-.029-.219-.03-.488-.03-1.123s.001-.904.03-1.124a3.5 3.5 0 0 1 3.014-3.013Z" clip-rule="evenodd"/></svg>