<svg width="24" height="24" viewBox="0 0 24 24" fill="none" xmlns="http://www.w3.org/2000/svg">
<path fill-rule="evenodd" clip-rule="evenodd" d="M17.7729 7.32348C18.0757 7.02072 18.0757 6.52984 17.7729 6.22707C17.4702 5.92431 16.9793 5.92431 16.6766 6.22707L12 10.9036L7.3235 6.22707C7.02072 5.92431 6.52984 5.92431 6.22707 6.22707C5.92431 6.52984 5.92431 7.02072 6.22707 7.32348L10.9036 12L6.22707 16.6765C5.92431 16.9793 5.92431 17.4701 6.22707 17.773C6.52984 18.0757 7.02072 18.0757 7.3235 17.773L12 13.0964L16.6766 17.773C16.9793 18.0757 17.4702 18.0757 17.7729 17.773C18.0757 17.4701 18.0757 16.9793 17.7729 16.6765L13.0964 12L17.7729 7.32348Z" fill="currentColor"/>
</svg>
