<svg width="17" height="17" viewBox="0 0 17 17" fill="none" xmlns="http://www.w3.org/2000/svg">
<path fill-rule="evenodd" clip-rule="evenodd" d="M4.09844 1.81063C4.93807 1.5 5.98842 1.5 8.08913 1.5H9.5775C11.6782 1.5 12.7286 1.5 13.5682 1.81063C14.937 2.31704 16.0163 3.39628 16.5227 4.76513C16.8333 5.60476 16.8333 6.65511 16.8333 8.75581C16.8333 10.8565 16.8333 11.9069 16.5227 12.7465C16.0163 14.1153 14.937 15.1946 13.5682 15.701C12.7286 16.0116 11.6782 16.0116 9.5775 16.0116H8.08913C5.98842 16.0116 4.93807 16.0116 4.09844 15.701C2.7296 15.1946 1.65035 14.1153 1.14394 12.7465C0.833313 11.9069 0.833313 10.8565 0.833313 8.75581C0.833313 6.65511 0.833313 5.60476 1.14394 4.76513C1.65035 3.39628 2.7296 2.31704 4.09844 1.81063ZM4.78424 5.15504C4.4396 4.92528 3.97395 5.01841 3.74418 5.36306C3.51442 5.7077 3.60755 6.17335 3.95219 6.40312L4.69638 6.89924L4.72367 6.91744C5.07507 7.15172 5.28381 7.29089 5.48749 7.40713C7.56108 8.59059 10.1056 8.59059 12.1792 7.40713C12.3829 7.29089 12.5916 7.15172 12.943 6.91743L12.9703 6.89924L13.7145 6.40312C14.0591 6.17335 14.1523 5.7077 13.9225 5.36306C13.6927 5.01841 13.2271 4.92528 12.8824 5.15504L12.1382 5.65117C11.7516 5.90894 11.5885 6.01716 11.4357 6.10437C9.82287 7.02484 7.8438 7.02484 6.23101 6.10437C6.0782 6.01716 5.91509 5.90894 5.52843 5.65117L4.78424 5.15504Z" fill="currentColor"/>
</svg>
