<svg width="24" height="24" viewBox="0 0 24 24" fill="none" xmlns="http://www.w3.org/2000/svg">
<path d="M19.9926 12.211C19.9921 13.8882 19.4651 15.5229 18.4858 16.8845C17.5064 18.246 16.1243 19.2657 14.5344 19.7997C14.123 19.8731 13.9834 19.6233 13.9834 19.4103V17.2064C14.0032 16.9375 13.9657 16.6675 13.8732 16.4142C13.7808 16.1609 13.6355 15.9301 13.4471 15.7372C15.2249 15.5389 17.1202 14.863 17.1202 11.7997C17.1286 11.006 16.8344 10.239 16.2975 9.65457C16.5339 8.96066 16.5025 8.20343 16.2093 7.53152C15.5482 7.32582 14.0055 8.35429 14.0055 8.35429C12.6965 7.98964 11.3134 7.98456 10.0018 8.3396C10.0018 8.3396 8.47377 7.32582 7.81261 7.53152C7.51943 8.20343 7.48799 8.96066 7.72446 9.65457C7.18696 10.2382 6.89493 11.0064 6.90903 11.7997C6.90903 14.8557 8.76762 15.5389 10.5454 15.7372C10.2596 16.0268 10.0808 16.4051 10.0385 16.8098C9.84323 16.9211 9.6277 16.9923 9.40454 17.0193C9.18139 17.0463 8.95509 17.0285 8.7389 16.9669C8.52272 16.9053 8.32099 16.8012 8.14554 16.6607C7.97009 16.5202 7.82444 16.3461 7.71711 16.1486C7.59089 15.9253 7.41422 15.7347 7.20122 15.5918C6.98821 15.449 6.74476 15.3579 6.4903 15.3258C5.70426 15.3258 6.43888 15.8107 6.43888 15.8107C6.96046 16.0531 7.32042 16.9787 7.32042 16.9787C7.79058 18.4039 10.0165 17.9264 10.0165 17.9264V19.3956C10.0165 19.5793 9.87689 19.8511 9.47285 19.7776C8.0741 19.3119 6.83123 18.4688 5.88146 17.3412C4.93169 16.2137 4.31194 14.8457 4.09065 13.3881C3.86935 11.9306 4.05511 10.4402 4.62742 9.08162C5.19973 7.723 6.13632 6.54894 7.33381 5.68905C8.5313 4.82917 9.94311 4.3169 11.4134 4.2088C12.8837 4.10069 14.3552 4.40096 15.6656 5.07646C16.976 5.75195 18.0742 6.7764 18.8391 8.0367C19.6039 9.29701 20.0057 10.7442 19.9999 12.2184L19.9926 12.211ZM6.9678 15.5756H6.83557C6.82088 15.5756 6.83557 15.6637 6.90903 15.7005C6.92682 15.7175 6.95051 15.7271 6.97515 15.7271C6.99979 15.7271 7.02348 15.7175 7.04126 15.7005C7.0633 15.6858 7.02657 15.605 6.9678 15.5756ZM7.34246 15.8841C7.29103 15.8327 7.21757 15.8107 7.1735 15.8841C7.12942 15.9576 7.1735 15.987 7.1735 16.0531C7.1735 16.1192 7.29838 16.1266 7.34246 16.0531C7.38654 15.9796 7.34246 15.9502 7.34246 15.8841ZM7.67304 16.3249C7.66732 16.3094 7.65859 16.2952 7.64735 16.2831C7.63611 16.271 7.62258 16.2613 7.60756 16.2545C7.59253 16.2476 7.57629 16.2438 7.55979 16.2433C7.54329 16.2428 7.52685 16.2456 7.51142 16.2514C7.46 16.2514 7.46 16.369 7.51142 16.4424C7.56284 16.5159 7.651 16.5453 7.68773 16.5159C7.72446 16.4865 7.83465 16.5159 7.83465 16.4131C7.83775 16.3947 7.83542 16.3758 7.82793 16.3588C7.82045 16.3417 7.80814 16.3272 7.79253 16.3171C7.77692 16.3069 7.75868 16.3016 7.74006 16.3017C7.72144 16.3017 7.70325 16.3073 7.68773 16.3176L7.67304 16.3249ZM8.06973 16.7583C7.99627 16.6849 7.90077 16.6775 7.85669 16.7583C7.83707 16.7907 7.8307 16.8294 7.83892 16.8664C7.84713 16.9033 7.86929 16.9357 7.90077 16.9567C7.97423 17.0154 8.06973 17.0375 8.10646 16.9567C8.14319 16.8759 8.10646 16.8244 8.10646 16.7583H8.06973ZM8.56927 17.0522C8.5329 17.0385 8.49284 17.0385 8.45641 17.052C8.41999 17.0654 8.38964 17.0916 8.37092 17.1256C8.37092 17.1844 8.40766 17.2579 8.50316 17.2799C8.53762 17.2964 8.57699 17.2996 8.61364 17.2887C8.65028 17.2778 8.6816 17.2538 8.7015 17.2211C8.7015 17.155 8.7015 17.0816 8.56927 17.0522V17.0522ZM9.18635 17.155C9.09085 17.155 9.01739 17.2064 9.01739 17.2726C9.01739 17.3387 9.09085 17.3974 9.20104 17.3828C9.31124 17.3681 9.36266 17.3313 9.36266 17.2726C9.36266 17.2138 9.27451 17.155 9.18635 17.155ZM9.79609 17.0742C9.70058 17.0742 9.63447 17.155 9.64916 17.2285C9.66385 17.3019 9.74466 17.3313 9.83282 17.3166C9.92097 17.3019 9.99443 17.2285 9.97974 17.1697C9.96505 17.1109 9.88424 17.0595 9.78874 17.0742H9.79609Z" fill="#858585"/>
</svg>
