<svg width="16" height="16" viewBox="0 0 16 16" fill="none" xmlns="http://www.w3.org/2000/svg">
<path fill-rule="evenodd" clip-rule="evenodd" d="M7.99928 0.266693C3.72944 0.266693 0.266663 3.72902 0.266663 8.00028C0.266663 11.4165 2.48229 14.3153 5.55531 15.3384C5.94222 15.4091 6.08322 15.1703 6.08322 14.9652C6.08322 14.7815 6.07657 14.2954 6.07278 13.6502C3.92171 14.1173 3.46786 12.6134 3.46786 12.6134C3.11608 11.7199 2.60905 11.482 2.60905 11.482C1.90691 11.0026 2.66222 11.0121 2.66222 11.0121C3.43843 11.0666 3.8467 11.8091 3.8467 11.8091C4.53651 12.9908 5.6569 12.6494 6.09746 12.4515C6.16773 11.952 6.36759 11.6112 6.58835 11.4179C4.8712 11.2224 3.06575 10.5591 3.06575 7.5958C3.06575 6.75123 3.36722 6.06143 3.8619 5.5207C3.78214 5.3251 3.51676 4.53891 3.93786 3.47406C3.93786 3.47406 4.58683 3.26612 6.06423 4.26641C6.68092 4.09502 7.34271 4.00957 8.00023 4.00625C8.65728 4.00957 9.3186 4.09502 9.93624 4.26641C11.4127 3.26612 12.0607 3.47406 12.0607 3.47406C12.4828 4.53891 12.2174 5.3251 12.1381 5.5207C12.6337 6.06143 12.9328 6.75123 12.9328 7.5958C12.9328 10.5667 11.1245 11.2205 9.40215 11.4118C9.6794 11.6506 9.92675 12.1225 9.92675 12.8441C9.92675 13.8776 9.91725 14.7117 9.91725 14.9652C9.91725 15.1722 10.0568 15.4129 10.449 15.3374C13.5196 14.3125 15.7333 11.4161 15.7333 8.00028C15.7333 3.72902 12.2705 0.266693 7.99928 0.266693" fill="currentColor"/>
</svg>
