<svg width="66" height="70" viewBox="0 0 66 70" fill="none" xmlns="http://www.w3.org/2000/svg"><g filter="url(#filter0_d_3251_13778)"><path d="M10.5002 12.5L10.5002 47.5C10.5002 51.6421 13.858 55 18.0002 55L21.3335 55C25.4756 55 28.8335 51.6421 28.8335 47.5L28.8335 12.5C28.8335 8.35787 25.4756 5 21.3335 5.00001L18.0002 5.00001C13.858 5.00001 10.5002 8.35787 10.5002 12.5Z" fill="currentColor"></path></g><g filter="url(#filter1_d_3251_13778)"><path d="M37.5832 12.5L37.5832 47.5C37.5832 51.6421 40.941 55 45.0832 55L48.4165 55C52.5586 55 55.9165 51.6421 55.9165 47.5L55.9165 12.5C55.9165 8.35787 52.5586 5 48.4165 5.00001L45.0832 5.00001C40.941 5.00001 37.5832 8.35787 37.5832 12.5Z" fill="currentColor"></path></g><defs><filter id="filter0_d_3251_13778" x="0.500001" y="4.76837e-07" width="38.3335" height="70" filterUnits="userSpaceOnUse" color-interpolation-filters="sRGB"><feFlood flood-opacity="0" result="BackgroundImageFix"></feFlood><feColorMatrix in="SourceAlpha" type="matrix" values="0 0 0 0 0 0 0 0 0 0 0 0 0 0 0 0 0 0 127 0" result="hardAlpha"></feColorMatrix><feOffset dy="5"></feOffset><feGaussianBlur stdDeviation="5"></feGaussianBlur><feComposite in2="hardAlpha" operator="out"></feComposite><feColorMatrix type="matrix" values="0 0 0 0 0 0 0 0 0 0 0 0 0 0 0 0 0 0 0.04 0"></feColorMatrix><feBlend mode="normal" in2="BackgroundImageFix" result="effect1_dropShadow_3251_13778"></feBlend><feBlend mode="normal" in="SourceGraphic" in2="effect1_dropShadow_3251_13778" result="shape"></feBlend></filter><filter id="filter1_d_3251_13778" x="27.583" y="4.76837e-07" width="38.3335" height="70" filterUnits="userSpaceOnUse" color-interpolation-filters="sRGB"><feFlood flood-opacity="0" result="BackgroundImageFix"></feFlood><feColorMatrix in="SourceAlpha" type="matrix" values="0 0 0 0 0 0 0 0 0 0 0 0 0 0 0 0 0 0 127 0" result="hardAlpha"></feColorMatrix><feOffset dy="5"></feOffset><feGaussianBlur stdDeviation="5"></feGaussianBlur><feComposite in2="hardAlpha" operator="out"></feComposite><feColorMatrix type="matrix" values="0 0 0 0 0 0 0 0 0 0 0 0 0 0 0 0 0 0 0.04 0"></feColorMatrix><feBlend mode="normal" in2="BackgroundImageFix" result="effect1_dropShadow_3251_13778"></feBlend><feBlend mode="normal" in="SourceGraphic" in2="effect1_dropShadow_3251_13778" result="shape"></feBlend></filter></defs></svg>
