<svg xmlns="http://www.w3.org/2000/svg" width="16" height="16" fill="none"><path fill="#A0A0A0" fill-rule="evenodd" d="M9.99 2.682c.905-.253 1.55-.434 2.048-.525.5-.092.766-.075.942-.009.402.153.72.47.871.872.067.176.084.442-.008.942-.091.497-.272 1.143-.525 2.048l-.95 3.395c-.226.806-.39 1.392-.533 1.82-.148.443-.25.641-.32.725a1.5 1.5 0 0 1-2.199.104c-.079-.077-.198-.265-.387-.693-.182-.412-.4-.98-.7-1.761l-.013-.032c-.095-.247-.16-.418-.248-.574a2.496 2.496 0 0 0-.097-.158L9.687 7.02a.5.5 0 0 0-.707-.707L7.164 8.13a2.5 2.5 0 0 0-.158-.097 4.49 4.49 0 0 0-.574-.248L6.4 7.772c-.78-.3-1.349-.52-1.761-.7-.429-.19-.616-.31-.693-.388a1.5 1.5 0 0 1 .104-2.199c.084-.07.282-.172.726-.32a44.679 44.679 0 0 1 1.819-.532l3.395-.951Zm3.344-1.469c-.438-.166-.928-.14-1.477-.04-.547.101-1.237.294-2.111.539l-.026.007-3.395.95-.014.005c-.788.22-1.398.391-1.851.542-.439.146-.807.296-1.055.504a2.5 2.5 0 0 0-.172 3.665c.226.23.579.414 1.002.601.437.193 1.028.42 1.792.714l.014.005c.291.112.39.152.477.2a1.5 1.5 0 0 1 .577.577c.048.086.088.186.2.477l.005.014c.294.764.521 1.355.714 1.792.187.423.37.776.601 1.002a2.5 2.5 0 0 0 3.665-.172c.208-.248.358-.616.504-1.055.15-.453.322-1.063.542-1.85l.004-.015.95-3.395.008-.026c.245-.874.438-1.564.538-2.111.101-.55.127-1.039-.04-1.477a2.5 2.5 0 0 0-1.452-1.453Z" clip-rule="evenodd"/></svg>