<svg width="24" height="24" viewBox="0 0 24 24" fill="none" xmlns="http://www.w3.org/2000/svg">
<path fill-rule="evenodd" clip-rule="evenodd" d="M21.3894 6.75206C21.9161 4.87097 22.1795 3.93042 21.935 3.285C21.7219 2.72228 21.2777 2.27801 20.7149 2.06489C20.0695 1.82046 19.129 2.08381 17.2479 2.61052L7.76067 5.26694C4.78951 6.09886 3.30393 6.51482 2.87346 7.22111C2.50115 7.83197 2.46542 8.59034 2.77865 9.2335C3.1408 9.97713 4.58069 10.5309 7.46046 11.6385L9.60621 12.4638V12.4638C9.98211 12.6084 10.415 12.5243 10.6998 12.2395L13.4697 9.46958C13.7626 9.17669 14.2375 9.17669 14.5304 9.46958C14.8233 9.76248 14.8233 10.2374 14.5304 10.5302L11.7604 13.3002C11.4757 13.585 11.3915 14.0178 11.5361 14.3937V14.3937L12.3613 16.5393C13.4689 19.4191 14.0226 20.8591 14.7663 21.2212C15.4094 21.5345 16.1678 21.4987 16.7787 21.1264C17.485 20.696 17.9009 19.2104 18.7329 16.2392L21.3894 6.75206Z" fill="#22272F"/>
</svg>
