<svg width="24" height="24" viewBox="0 0 24 24" fill="none" xmlns="http://www.w3.org/2000/svg">
<path d="M18.3586 8.74338V9.16569C18.367 10.3927 18.1317 11.6092 17.6663 12.7445C17.2009 13.8799 16.5146 14.9115 15.6474 15.7795C14.7801 16.6475 13.7491 17.3347 12.6141 17.8011C11.4792 18.2674 10.2629 18.5038 9.03586 18.4964C7.25008 18.5018 5.50097 17.9898 4 17.0223C4.2642 17.0558 4.53058 17.0691 4.79681 17.0621C6.27217 17.068 7.70651 16.5768 8.86853 15.6677C8.1836 15.6544 7.5199 15.4277 6.96997 15.0192C6.42005 14.6106 6.01133 14.0407 5.8008 13.3888C6.00673 13.4192 6.21425 13.4379 6.42231 13.4446C6.71504 13.4394 7.00631 13.402 7.29084 13.333C6.55228 13.185 5.88711 12.7874 5.40689 12.2071C4.92668 11.6268 4.66063 10.899 4.65339 10.1458V10.1059C5.10981 10.3541 5.6165 10.4958 6.13546 10.5203C5.43029 10.055 4.93108 9.33629 4.74122 8.51306C4.55136 7.68982 4.68538 6.8251 5.11554 6.09796C5.93907 7.113 6.96701 7.94336 8.13252 8.53504C9.29804 9.12672 10.575 9.46648 11.8805 9.53222C11.8264 9.28625 11.7997 9.03506 11.8008 8.78322C11.8014 8.12574 11.9994 7.4836 12.3692 6.93996C12.739 6.39632 13.2635 5.97625 13.8748 5.73414C14.4861 5.49203 15.156 5.43905 15.7977 5.58205C16.4394 5.72506 17.0235 6.05746 17.4741 6.53621C18.2079 6.39173 18.9113 6.1222 19.5538 5.7394C19.3097 6.49805 18.7968 7.14133 18.1116 7.54816C18.7629 7.47801 19.3998 7.30872 20 7.04617C19.5519 7.69994 18.997 8.27368 18.3586 8.74338V8.74338Z" fill="#858585"/>
</svg>
