<svg width="17" height="16" viewBox="0 0 17 16" fill="none" xmlns="http://www.w3.org/2000/svg">
<path d="M11.3462 1.5C9.32605 1.5 7.67108 3.10682 7.67108 5.11137C7.67108 5.15846 7.6721 5.2055 7.67411 5.2525C5.44964 4.96694 3.47545 3.84863 2.12269 2.24274C2.01697 2.11724 1.85737 2.05019 1.69373 2.06253C1.5301 2.07488 1.38237 2.16511 1.29667 2.30506C0.627865 3.39728 0.661421 4.74014 1.23584 5.81341C0.976892 5.83591 0.769442 6.06035 0.769442 6.32213C0.769442 7.40404 1.25683 8.40202 2.04619 9.07963C1.90561 9.21129 1.84946 9.42004 1.90827 9.60621C2.23135 10.629 3.00481 11.4383 3.99077 11.8408C2.98717 12.3175 1.85859 12.5082 0.739394 12.3711C0.502728 12.3421 0.277504 12.4808 0.19681 12.7052C0.116116 12.9295 0.201435 13.1799 0.40235 13.3083C1.87186 14.2473 3.62508 14.7766 5.52956 14.7766C11.6755 14.7766 15.0485 9.80283 15.0485 5.46574V5.13594L15.0616 5.12378C15.1921 5.00161 15.3589 4.82001 15.5235 4.57002C15.8556 4.06545 16.1666 3.29924 16.1666 2.21735C16.1666 2.0342 16.0685 1.86508 15.9096 1.77413C15.7506 1.68317 15.5551 1.68433 15.3972 1.77715C14.9177 2.05906 14.3725 2.28157 13.8184 2.42489C13.1465 1.83345 12.2859 1.5 11.3462 1.5Z" fill="currentColor"/>
</svg>
