<svg width="20" height="20" viewBox="0 0 20 20" fill="none" xmlns="http://www.w3.org/2000/svg">
<g opacity="0.75">
<path fill-rule="evenodd" clip-rule="evenodd" d="M4.83331 10C4.83331 10.8284 4.16174 11.5 3.33331 11.5C2.50489 11.5 1.83331 10.8284 1.83331 10C1.83331 9.17157 2.50489 8.5 3.33331 8.5C4.16174 8.5 4.83331 9.17157 4.83331 10ZM11.5 10C11.5 10.8284 10.8284 11.5 9.99998 11.5C9.17155 11.5 8.49998 10.8284 8.49998 10C8.49998 9.17157 9.17155 8.5 9.99998 8.5C10.8284 8.5 11.5 9.17157 11.5 10ZM16.6666 11.5C17.4951 11.5 18.1666 10.8284 18.1666 10C18.1666 9.17157 17.4951 8.5 16.6666 8.5C15.8382 8.5 15.1666 9.17157 15.1666 10C15.1666 10.8284 15.8382 11.5 16.6666 11.5Z" fill="#8B918A"/>
</g>
</svg>
